<?xml version="1.0" encoding="UTF-8"?>
<!DOCTYPE svg PUBLIC "-//W3C//DTD SVG 1.1//EN" "http://www.w3.org/Graphics/SVG/1.1/DTD/svg11.dtd">
<!-- Creator: CorelDRAW 2019 (64-Bit) -->
<svg xmlns="http://www.w3.org/2000/svg" xml:space="preserve" width="210mm" height="297mm" version="1.1" style="shape-rendering:geometricPrecision; text-rendering:geometricPrecision; image-rendering:optimizeQuality; fill-rule:evenodd; clip-rule:evenodd"
viewBox="0 0 21000 29700"
 xmlns:xlink="http://www.w3.org/1999/xlink"
 xmlns:xodm="http://www.corel.com/coreldraw/odm/2003"
 t="1627648755203"
 p-id="1264">
 <defs>
  <style type="text/css">
   <![CDATA[
    .fil0 {fill:#FFF500}
   ]]>
  </style>
 </defs>
 <g id="图层_x0020_1">
  <metadata id="CorelCorpID_0Corel-Layer"/>
  <path class="fil0" d="M11425.88 14147.15c38.31,38.27 59.85,90.25 59.85,144.42 0,54.17 -21.54,106.15 -59.86,144.44l-1225.49 1225.8c-38.26,38.3 -90.24,59.84 -144.41,59.84 -54.17,0 -106.15,-21.54 -144.44,-59.86l-544.73 -544.73c-38.27,-38.26 -59.82,-90.26 -59.82,-144.42 0,-112.79 91.47,-204.26 204.26,-204.26 54.16,0 106.16,21.55 144.44,59.82l400.3 400.3 1081.06 -1081.37c38.26,-38.31 90.24,-59.85 144.41,-59.85 54.17,0 106.15,21.54 144.44,59.86l-0.01 0.01zm-1029.53 -1421.6c-1203.17,0 -2178.91,975.74 -2178.91,2178.91 0,1203.18 975.74,2178.92 2178.92,2178.92 1203.17,0 2178.91,-975.74 2178.91,-2178.92 0,-1203.17 -975.74,-2178.91 -2178.91,-2178.91l-0.01 0z" p-id="1265"/>
 </g>
</svg>
